<svg xmlns="http://www.w3.org/2000/svg" width="22" height="22" viewBox="0 0 22 22">
    <path fill="#393A3C" fill-rule="evenodd" stroke="#393A3C" stroke-width=".4" d="M17.888 8.067l.414.722a12.385 12.385 0 0 1 1.657 6.238l-.002.62a1.676 1.676 0 0 1-.836 1.443l-.203.116a.334.334 0 0 1-.456-.122l-3.68-6.37-5.643 4.983-.483.376a7.032 7.032 0 0 1 .867 3.374l.003.497a1.02 1.02 0 0 1-.5.87h-.001l-.246.141a.334.334 0 0 1-.457-.124L6.45 17.59a8.142 8.142 0 0 1-.54.258c-.168.073-.35.11-.534.111A1.346 1.346 0 0 1 4.15 16.09c.08-.183.167-.361.259-.539l-3.243-1.872a.334.334 0 0 1-.122-.457l.142-.243c.18-.307.51-.498.865-.502l.504.003a7.032 7.032 0 0 1 3.372.864l.38-.49 4.978-5.639-6.37-3.677a.334.334 0 0 1-.122-.456l.117-.203a1.676 1.676 0 0 1 1.442-.836l.621-.002c2.189-.003 4.34.568 6.238 1.657l.721.415 1.335-1.501a5.015 5.015 0 0 1 4.393-1.56l.384.054c.44.066.784.41.85.85l.054.387a5.01 5.01 0 0 1-1.554 4.386l-.006.004-1.5 1.335zM6.356 2.71a1.008 1.008 0 0 0-.812.418l6.188 3.573 1.756-2.075-.61-.35a11.792 11.792 0 0 0-5.902-1.569l-.62.003zM2.054 13.145c-.1 0-.196.046-.26.124l2.942 1.698c.04-.066.083-.127.125-.191a7.84 7.84 0 0 1 .444-.628l.21-.271a6.368 6.368 0 0 0-2.96-.73l-.5-.002zm6.799 6.302a6.37 6.37 0 0 0-.73-2.961l-.274.213-.01.007a7.722 7.722 0 0 1-.468.338c-.048.033-.099.064-.149.097-.063.04-.124.083-.189.122l1.697 2.942a.34.34 0 0 0 .125-.264l-.002-.494zm-.14-4.265l10.229-8.948a4.342 4.342 0 0 0 1.346-3.798l-.055-.386a.337.337 0 0 0-.284-.283l-.384-.054a4.348 4.348 0 0 0-3.803 1.348L6.825 13.278l-.54.695c-.003.002-.003.005-.003.005l-.451.58c-.254.323-.48.666-.68 1.026-.14.25-.268.506-.382.769a.672.672 0 0 0 .882.879c.261-.114.516-.24.763-.38.359-.2.7-.426 1.023-.678l.583-.455c.001-.003.004-.003.005-.003l.688-.535zm10.576.463l.002-.619c.01-2.072-.531-4.109-1.566-5.904l-.351-.61-2.076 1.755 3.573 6.189c.26-.188.416-.49.418-.811zM17.147 3.479a.334.334 0 1 1-.34-.575 1.672 1.672 0 0 1 2.288 2.291.334.334 0 0 1-.575-.341 1.003 1.003 0 0 0-1.373-1.375z"/>
</svg>
