<svg xmlns="http://www.w3.org/2000/svg" width="40" height="38" viewBox="0 0 40 38">
    <path fill="#1F1E21" fill-rule="nonzero" stroke="#1F1E21" stroke-width=".4" d="M24.904 29.916a.524.524 0 0 0 .24.048c.097 0 .193-.048.29-.097l4.193-2.506a.575.575 0 0 0 .24-.433.506.506 0 0 0-.24-.434l-4.193-2.506a.522.522 0 0 0-.53 0c-.145.096-.29.29-.29.434v5.012c0 .24.097.385.29.482zm.77-4.53l2.651 1.59-2.65 1.59v-3.18zM14.447 7.988h5.205c.289 0 .53-.241.53-.53 0-.29-.241-.53-.53-.53h-5.205c-.29 0-.53.24-.53.53 0 .337.24.53.53.53zm0 4.24h10.217c.289 0 .53-.24.53-.53 0-.288-.241-.53-.53-.53H14.446c-.29 0-.53.242-.53.53 0 .29.24.53.53.53zm-7.422 16.58a2.314 2.314 0 0 0 0-4.627c-1.253 0-2.313 1.06-2.313 2.313 0 1.253 1.06 2.313 2.313 2.313zm0-3.615c.723 0 1.301.578 1.301 1.301s-.578 1.301-1.3 1.301a1.296 1.296 0 0 1-1.302-1.301c.048-.723.626-1.301 1.301-1.301zm32.048-10.169h-9.205V7.361a.547.547 0 0 0-.144-.385l-5.976-5.831A.547.547 0 0 0 23.361 1H10.157c-.29 0-.53.241-.53.53v19.663H1.53c-.289 0-.53.24-.53.53V36.47c0 .289.241.53.53.53h18.072c.29 0 .53-.241.53-.53v-1.735h18.892c.29 0 .53-.241.53-.53v-18.65c0-.29-.193-.53-.482-.53zM23.747 2.64l4.434 4.337h-4.434V2.639zm-13.06-.579h12v5.398c0 .289.24.53.53.53h5.59v7.036H14.446c-.29 0-.53.241-.53.53V21c0 .048 0 .145.048.193h-3.277V2.06zm8.433 33.928H2.06v-.82l3.663-3.662 1.88 1.88c.192.192.53.192.722 0l5.976-5.976 4.82 4.819v3.759zm0-5.253L14.687 26.3a.524.524 0 0 0-.723 0l-5.976 5.976-1.88-1.88a.524.524 0 0 0-.722 0l-3.278 3.278V22.253H19.12v8.482zm19.422 2.988h-18.41v-12c0-.29-.24-.53-.53-.53h-4.674c0-.048.048-.145.048-.193v-1.253h23.566v13.976zm0-14.988H14.976v-2.65h23.566v2.65z"/>
</svg>
