<svg xmlns="http://www.w3.org/2000/svg" width="40" height="36" viewBox="0 0 40 36">
    <path fill="#1F1E21" fill-rule="evenodd" d="M38.4 16.8a.8.8 0 0 1 .8.8v17.6a.8.8 0 0 1-.8.8H.8a.8.8 0 0 1-.8-.8V17.6a.8.8 0 0 1 .8-.8h.8v-1.6h1.6v1.6H10V2.4a.8.8 0 0 1 .8-.8h.8V0h1.6v1.6H26V0h1.6v1.6h.8a.8.8 0 0 1 .8.8v14.4H36v-1.6h1.6v1.6h.8zM10 34.4v-16H1.6V20H8v1.6H1.6v12.8H10zm12 0v-5.6h-1.6v4h-1.6v-4h-1.6v5.6H22zm5.6-16.8V3.2h-16v1.6H26v1.6H11.6v28h4v-5.6h-1.2v-1.6h10.4v1.6h-1.2v5.6h4V17.6zm10 2.4v-1.6h-8.4v16h8.4V21.6h-6.4V20h6.4zM2.8 23.2h1.6v1.6H2.8v-1.6zm2.4 0h1.6v1.6H5.2v-1.6zm2.4 0h1.6v1.6H7.6v-1.6zM2.8 26h1.6v1.6H2.8V26zm2.4 0h1.6v1.6H5.2V26zm2.4 0h1.6v1.6H7.6V26zm-4.8 2.8h1.6v1.6H2.8v-1.6zm2.4 0h1.6v1.6H5.2v-1.6zm2.4 0h1.6v1.6H7.6v-1.6zm-4.8 2.8h1.6v1.6H2.8v-1.6zm2.4 0h1.6v1.6H5.2v-1.6zm2.4 0h1.6v1.6H7.6v-1.6zM14 8.8h1.6v1.6H14V8.8zm3.2 0h1.6v1.6h-1.6V8.8zm3.2 0H22v1.6h-1.6V8.8zM14 11.6h1.6v1.6H14v-1.6zm3.2 0h1.6v1.6h-1.6v-1.6zm3.2 0H22v1.6h-1.6v-1.6zM14 14.4h1.6V16H14v-1.6zm3.2 0h1.6V16h-1.6v-1.6zm3.2 0H22V16h-1.6v-1.6zM14 17.2h1.6v1.6H14v-1.6zm3.2 0h1.6v1.6h-1.6v-1.6zm3.2 0H22v1.6h-1.6v-1.6zm3.2-8.4h1.6v1.6h-1.6V8.8zm0 2.8h1.6v1.6h-1.6v-1.6zm0 2.8h1.6V16h-1.6v-1.6zm0 2.8h1.6v1.6h-1.6v-1.6zM14 20h1.6v1.6H14V20zm3.2 0h1.6v1.6h-1.6V20zm3.2 0H22v1.6h-1.6V20zM14 22.8h1.6v1.6H14v-1.6zm3.2 0h1.6v1.6h-1.6v-1.6zm3.2 0H22v1.6h-1.6v-1.6zm3.2-2.8h1.6v1.6h-1.6V20zm0 2.8h1.6v1.6h-1.6v-1.6zm6.4.4h1.6v1.6H30v-1.6zm2.4 0H34v1.6h-1.6v-1.6zm2.4 0h1.6v1.6h-1.6v-1.6zM30 26h1.6v1.6H30V26zm2.4 0H34v1.6h-1.6V26zm2.4 0h1.6v1.6h-1.6V26zM30 28.8h1.6v1.6H30v-1.6zm2.4 0H34v1.6h-1.6v-1.6zm2.4 0h1.6v1.6h-1.6v-1.6zM30 31.6h1.6v1.6H30v-1.6zm2.4 0H34v1.6h-1.6v-1.6zm2.4 0h1.6v1.6h-1.6v-1.6z"/>
</svg>
