<svg xmlns="http://www.w3.org/2000/svg" xmlns:xlink="http://www.w3.org/1999/xlink" width="1000" height="951" viewBox="0 0 1000 951">
  <defs>
    <clipPath id="clip-custom_1">
      <rect width="1000" height="951"/>
    </clipPath>
  </defs>
  <g id="custom_1" data-name="custom – 1" clip-path="url(#clip-custom_1)">
    <rect width="1000" height="951" fill="rgba(255,255,255,0)"/>
    <path id="restaurants" d="M877.415,57.752a17.719,17.719,0,0,1,0,25.06L693.8,266.432a17.72,17.72,0,0,1-25.06-25.06L852.381,57.752A17.719,17.719,0,0,1,877.415,57.752Zm49.939,49.161a17.719,17.719,0,0,1,0,25.034L743.734,315.593a17.72,17.72,0,0,1-25.06-25.06L902.32,106.912a17.719,17.719,0,0,1,25.034,0ZM754.137,417A129.582,129.582,0,0,1,619.5,447.432L562.06,512.158,855.6,772.7A92.082,92.082,0,1,1,725.808,902.512L470.691,615.1,215.6,902.538A92.128,92.128,0,1,1,85.733,772.671L294.906,587.027a17.706,17.706,0,0,1,23.5,26.487l-209.3,185.747a56.691,56.691,0,1,0,79.851,79.851l334.76-377.15.078-.1.1-.1,77.464-87.27a17.719,17.719,0,0,1,20.858-4.229A94.041,94.041,0,0,0,729.1,391.915L957.032,163.96a17.72,17.72,0,1,1,25.06,25.06L754.137,416.975Zm78.086,382.312L538.556,538.645l-44.206,49.783L752.4,879.138a56.672,56.672,0,1,0,79.825-79.825ZM824.259,6.178a17.719,17.719,0,0,1,0,25.034L596.3,259.168a94.041,94.041,0,0,0-18.341,106.857,17.719,17.719,0,0,1-4.2,20.884L416.031,526.867a17.641,17.641,0,0,1-24.982-1.479l-66.776-75.233A178.12,178.12,0,0,1,117.071,417c-54.92-54.946-93.6-118.557-108.854-179.158-15.929-63.3-5.292-117.519,29.937-152.749C73.41,49.839,127.656,39.229,190.9,55.131c60.6,15.28,124.264,53.934,179.184,108.854a178.12,178.12,0,0,1,33.18,207.2l67.4,59.849,70.148-62.262A129.556,129.556,0,0,1,571.27,234.134L799.225,6.178a17.718,17.718,0,0,1,25.034,0ZM405.783,488.628,444,454.721l-74.921-66.49a17.719,17.719,0,0,1-3.321-22.544A142.89,142.89,0,0,0,345.026,189.02C294.569,138.562,236.743,103.2,182.264,89.479c-50.691-12.764-92.977-5.448-119.049,20.65C37.143,136.2,29.8,178.487,42.565,229.2c13.749,54.479,49.083,112.279,99.567,162.736a142.891,142.891,0,0,0,176.641,20.754,17.719,17.719,0,0,1,22.544,3.295l64.467,72.639Z" transform="translate(3 8)" fill="#1f1e21" stroke="#1f1e21" stroke-width="0.4" fill-rule="evenodd"/>
  </g>
</svg>
