<svg xmlns="http://www.w3.org/2000/svg" width="21" height="22" viewBox="0 0 21 22">
    <path fill="#393A3C" fill-rule="nonzero" stroke="#393A3C" stroke-width=".4" d="M19.67 8.94a.39.39 0 0 1 .391.39v3.143a.39.39 0 0 1-.39.39H17.88a.39.39 0 0 1-.39-.39V9.33a.39.39 0 0 1 .39-.391h.558V6.899a.303.303 0 0 0-.303-.303h-.91v11.683a.825.825 0 0 1-.65.804v.84c0 .594-.482 1.077-1.076 1.077h-1.241a1.078 1.078 0 0 1-1.077-1.077v-.82h-5.3v.82c0 .594-.484 1.077-1.078 1.077h-1.24a1.078 1.078 0 0 1-1.077-1.077v-.84a.825.825 0 0 1-.65-.804V6.596h-.91a.303.303 0 0 0-.303.303V8.94h.558a.39.39 0 0 1 .391.39v3.143a.39.39 0 0 1-.39.39H1.39a.39.39 0 0 1-.391-.39V9.33a.39.39 0 0 1 .39-.391h.452V6.899c0-.598.487-1.084 1.084-1.084h.91V4.328l.002-.024-.001-.024V3.172C3.837 1.975 4.81 1 6.009 1h9.043c1.198 0 2.173.975 2.173 2.172V4.28l-.001.024V5.815h.91c.599 0 1.085.486 1.085 1.084V8.94h.452zm-16.88.781H1.782v2.361h1.01v-2.36zM7.1 19.923v-.82H5.267v.82c0 .163.133.296.296.296h1.24a.296.296 0 0 0 .296-.296zm8.695 0v-.82h-1.832v.82c0 .163.133.296.296.296h1.24a.296.296 0 0 0 .296-.296zm.65-1.644v-1.722H13.59a.725.725 0 0 1-.724-.724v-1.165H8.245v1.165c0 .4-.325.724-.724.724H4.618v1.722c0 .023.019.042.042.042H16.401c.023 0 .043-.019.043-.042zM4.669 15.776h2.795v-1.1H4.669v1.1zm11.775 0v-1.1h-2.796v1.1h2.796zm0-9.57V4.718H4.618V13.887h5.16L8.165 12.04a.39.39 0 0 1 .588-.515l2.063 2.36h5.628v-7.68zm0-2.316v-.718c0-.767-.625-1.39-1.392-1.39H6.01c-.767 0-1.391.623-1.391 1.39v.718h11.826zm2.836 8.192v-2.36h-1.01v2.36h1.01zm-7.507 4.84a.39.39 0 0 1 0 .78H9.288a.39.39 0 0 1 0-.78h2.485zm-3.96-6.391a.385.385 0 0 1-.166.401.4.4 0 0 1-.293.058.395.395 0 0 1-.284-.233.394.394 0 0 1 .036-.367.376.376 0 0 1 .175-.144.394.394 0 0 1 .366.036.39.39 0 0 1 .166.249z" opacity=".5"/>
</svg>
