<svg xmlns="http://www.w3.org/2000/svg" width="22" height="22" viewBox="0 0 22 22">
    <path fill="#000" fill-rule="nonzero" stroke="#000" stroke-width=".2" d="M15.61 5.218c.646 0 1.172.526 1.172 1.172v13.438c0 .646-.526 1.172-1.172 1.172H2.172A1.173 1.173 0 0 1 1 19.828V6.39c0-.646.526-1.172 1.172-1.172h3.317l.008-.004 7.027-4.057a1.173 1.173 0 0 1 1.6.429l1.323 2.291a.39.39 0 1 1-.676.39l-1.323-2.29a.391.391 0 0 0-.534-.144L7.051 5.218h8.559zm.39 14.61V6.39a.391.391 0 0 0-.39-.39H2.172a.391.391 0 0 0-.39.39v13.438c0 .215.175.39.39.39H15.61c.215 0 .39-.175.39-.39zm2.473-10.683a.393.393 0 0 1 0 .552.394.394 0 0 1-.552 0 .393.393 0 0 1 0-.552.393.393 0 0 1 .552 0zm2.37 4.078c.323.56.13 1.278-.429 1.6l-2.512 1.451a.389.389 0 0 1-.533-.143.39.39 0 0 1 .143-.533l2.512-1.45a.391.391 0 0 0 .143-.534l-1.617-2.8a.39.39 0 1 1 .677-.39l1.616 2.8zm-9.567-6.015a.393.393 0 0 1 0 .552.393.393 0 0 1-.552 0 .393.393 0 0 1 0-.552.394.394 0 0 1 .552 0zm3.24-.115a.39.39 0 0 1 .39.391v9.375a.39.39 0 0 1-.39.39H3.266a.39.39 0 0 1-.391-.39V7.484a.39.39 0 0 1 .39-.39h5.626a.39.39 0 0 1 0 .78H3.656v8.042l3.112-3.112a.39.39 0 0 1 .553 0l2.383 2.383a.39.39 0 0 1-.553.552l-2.106-2.106-2.836 2.836h9.916v-1.92l-.003-.003-3.374-3.375-1.793 1.794a.39.39 0 0 1-.553-.553l2.07-2.07a.39.39 0 0 1 .552 0l3.101 3.102v-5.57h-1.133a.39.39 0 0 1 0-.78h1.524zM6.69 8.773c.69 0 1.25.56 1.25 1.25s-.56 1.25-1.25 1.25-1.25-.56-1.25-1.25.561-1.25 1.25-1.25zm0 1.719a.47.47 0 1 0 0-.939.47.47 0 0 0 0 .939z" opacity=".5"/>
</svg>
