<svg xmlns="http://www.w3.org/2000/svg" width="35" height="38" viewBox="0 0 35 38">
    <path fill="#1F1E21" fill-rule="nonzero" stroke="#1F1E21" stroke-width=".3" d="M33.864 18.388a.973.973 0 0 1 0 1.224c-.333.412-8.26 10.09-16.323 10.09-8.065 0-15.99-9.678-16.324-10.09a.973.973 0 0 1 0-1.224c.333-.412 8.26-10.09 16.324-10.09 8.064 0 15.99 9.678 16.323 10.09zm-16.323 9.369c6.051 0 12.44-6.674 14.284-8.757-1.845-2.083-8.233-8.757-14.284-8.757-6.052 0-12.44 6.674-14.285 8.757 1.845 2.083 8.233 8.757 14.285 8.757zm0-14.108c3.111 0 5.643 2.4 5.643 5.351 0 2.95-2.532 5.351-5.643 5.351-3.112 0-5.644-2.4-5.644-5.351 0-2.95 2.532-5.351 5.644-5.351zm0 8.756c2.038 0 3.697-1.527 3.697-3.405s-1.659-3.405-3.697-3.405c-2.039 0-3.698 1.527-3.698 3.405s1.659 3.405 3.698 3.405zm0-2.432c-.574 0-1.038-.436-1.038-.973 0-.537.464-.973 1.038-.973.573 0 1.037.436 1.037.973 0 .537-.464.973-1.037.973zm0-12.649a.973.973 0 0 1-.973-.973V1.973a.973.973 0 0 1 1.946 0v4.378a.973.973 0 0 1-.973.973zm-10.715 3.14l-3.15-3.151A.973.973 0 1 1 5.05 5.937l3.15 3.15a.973.973 0 1 1-1.375 1.377zm20.741.285a.973.973 0 0 1-.688-1.66l3.151-3.152a.973.973 0 1 1 1.376 1.376l-3.15 3.15a.97.97 0 0 1-.689.286zM6.826 27.536a.973.973 0 1 1 1.376 1.376l-3.151 3.15a.97.97 0 0 1-1.376 0 .973.973 0 0 1 0-1.375l3.151-3.15zm21.43 0l3.15 3.151a.973.973 0 1 1-1.376 1.376l-3.15-3.15a.973.973 0 1 1 1.375-1.377zm-10.715 3.14c.537 0 .973.435.973.973v4.378a.973.973 0 0 1-1.946 0v-4.378c0-.538.435-.973.973-.973z" opacity=".5"/>
</svg>
