<svg xmlns="http://www.w3.org/2000/svg" xmlns:xlink="http://www.w3.org/1999/xlink" width="1000" height="969" viewBox="0 0 1000 969">
  <defs>
    <clipPath id="clip-custom_1">
      <rect width="1000" height="969"/>
    </clipPath>
  </defs>
  <g id="custom_1" data-name="custom – 1" clip-path="url(#clip-custom_1)">
    <rect width="1000" height="969" fill="rgba(255,255,255,0)"/>
    <g id="restaurants" transform="translate(-799 6)" opacity="0.5">
      <path id="Path_1" data-name="Path 1" d="M1687.936,57.369a17.912,17.912,0,0,1,0,25.333L1502.32,268.316a17.913,17.913,0,1,1-25.333-25.332L1662.629,57.369a17.911,17.911,0,0,1,25.308,0Zm50.48,49.695a17.913,17.913,0,0,1,0,25.306L1552.8,318.011a17.914,17.914,0,0,1-25.335-25.333l185.641-185.614a17.911,17.911,0,0,1,25.306,0Zm-175.1,313.458a130.991,130.991,0,0,1-136.106,30.761l-58.057,65.429,296.726,263.37a93.09,93.09,0,1,1-131.225,131.226L1276.767,620.769,1018.905,911.333A93.119,93.119,0,1,1,887.651,780.055L1099.1,592.395a17.9,17.9,0,0,1,23.762,26.775L911.281,806.935A57.307,57.307,0,1,0,992,887.653l338.4-381.247.078-.1.105-.1,78.306-88.218a17.912,17.912,0,0,1,21.082-4.275,95.061,95.061,0,0,0,108.044-18.54L1768.42,164.731a17.913,17.913,0,0,1,25.335,25.332L1563.322,420.5Zm78.935,386.466-296.859-263.5-44.684,50.324,260.852,293.868a57.288,57.288,0,1,0,80.693-80.693ZM1634.2,5.235a17.912,17.912,0,0,1,0,25.306L1403.77,260.974a95.063,95.063,0,0,0-18.539,108.017,17.909,17.909,0,0,1-4.248,21.111L1221.54,531.581a17.834,17.834,0,0,1-25.255-1.5l-67.5-76.05a180.059,180.059,0,0,1-209.455-33.514c-55.514-55.543-94.613-119.845-110.034-181.1-16.1-63.961-5.35-118.8,30.262-154.408C875.2,49.371,930.032,38.645,993.966,54.72c61.26,15.446,125.614,54.52,181.13,110.037a180.057,180.057,0,0,1,33.542,209.453l68.13,60.5,70.91-62.938a130.971,130.971,0,0,1,30.787-136.1L1608.9,5.235a17.909,17.909,0,0,1,25.306,0ZM1211.179,492.927l38.629-34.275-75.735-67.213a17.91,17.91,0,0,1-3.358-22.789,144.442,144.442,0,0,0-20.951-178.586c-51.007-51.006-109.461-86.75-164.53-100.622-51.242-12.9-93.988-5.507-120.343,20.874-26.356,26.355-33.777,69.1-20.875,120.369,13.9,55.071,49.617,113.5,100.648,164.5a144.444,144.444,0,0,0,178.562,20.98,17.914,17.914,0,0,1,22.791,3.329l65.164,73.429Z" transform="translate(0 0)"/>
      <path id="Path_2" data-name="Path 2" d="M1687.936,57.369a17.912,17.912,0,0,1,0,25.333L1502.32,268.316a17.913,17.913,0,1,1-25.333-25.332L1662.629,57.369a17.911,17.911,0,0,1,25.308,0Zm50.48,49.695a17.913,17.913,0,0,1,0,25.306L1552.8,318.011a17.914,17.914,0,0,1-25.335-25.333l185.641-185.614a17.911,17.911,0,0,1,25.306,0Zm-175.1,313.458a130.991,130.991,0,0,1-136.106,30.761l-58.057,65.429,296.726,263.37a93.09,93.09,0,1,1-131.225,131.226L1276.767,620.769,1018.905,911.333A93.119,93.119,0,1,1,887.651,780.055L1099.1,592.395a17.9,17.9,0,0,1,23.762,26.775L911.281,806.935A57.307,57.307,0,1,0,992,887.653l338.4-381.247.078-.1.105-.1,78.306-88.218a17.912,17.912,0,0,1,21.082-4.275,95.061,95.061,0,0,0,108.044-18.54L1768.42,164.731a17.913,17.913,0,0,1,25.335,25.332L1563.322,420.5Zm78.935,386.466-296.859-263.5-44.684,50.324,260.852,293.868a57.288,57.288,0,1,0,80.693-80.693ZM1634.2,5.235a17.912,17.912,0,0,1,0,25.306L1403.77,260.974a95.063,95.063,0,0,0-18.539,108.017,17.909,17.909,0,0,1-4.248,21.111L1221.54,531.581a17.834,17.834,0,0,1-25.255-1.5l-67.5-76.05a180.059,180.059,0,0,1-209.455-33.514c-55.514-55.543-94.613-119.845-110.034-181.1-16.1-63.961-5.35-118.8,30.262-154.408C875.2,49.371,930.032,38.645,993.966,54.72c61.26,15.446,125.614,54.52,181.13,110.037a180.057,180.057,0,0,1,33.542,209.453l68.13,60.5,70.91-62.938a130.971,130.971,0,0,1,30.787-136.1L1608.9,5.235a17.909,17.909,0,0,1,25.306,0ZM1211.179,492.927l38.629-34.275-75.735-67.213a17.91,17.91,0,0,1-3.358-22.789,144.442,144.442,0,0,0-20.951-178.586c-51.007-51.006-109.461-86.75-164.53-100.622-51.242-12.9-93.988-5.507-120.343,20.874-26.356,26.355-33.777,69.1-20.875,120.369,13.9,55.071,49.617,113.5,100.648,164.5a144.444,144.444,0,0,0,178.562,20.98,17.914,17.914,0,0,1,22.791,3.329l65.164,73.429Z" transform="translate(0 0)" fill="#1f1e21" stroke="#1f1e21" stroke-width="0.4"/>
    </g>
  </g>
</svg>
