<svg xmlns="http://www.w3.org/2000/svg" xmlns:xlink="http://www.w3.org/1999/xlink" width="87" height="85" viewBox="0 0 87 85">
    <defs>
        <path id="b" d="M835.783 2.188a.683.683 0 0 1 0 .966l-7.078 7.078a.68.68 0 0 1-.966 0 .683.683 0 0 1 0-.966l7.079-7.078a.683.683 0 0 1 .965 0zm1.925 1.895a.683.683 0 0 1 0 .965l-7.078 7.079a.68.68 0 0 1-.966 0 .683.683 0 0 1 0-.966l7.079-7.078a.683.683 0 0 1 .965 0zm-6.677 11.953a4.995 4.995 0 0 1-5.19 1.173l-2.214 2.495 11.315 10.043a3.555 3.555 0 0 1 .21 5.215 3.54 3.54 0 0 1-2.51 1.038 3.54 3.54 0 0 1-2.704-1.249l-9.834-11.079-9.833 11.08A3.539 3.539 0 0 1 807.567 36a3.54 3.54 0 0 1-2.511-1.04 3.527 3.527 0 0 1-1.04-2.51 3.527 3.527 0 0 1 1.25-2.704l8.063-7.156a.682.682 0 1 1 .906 1.021l-8.068 7.16a2.182 2.182 0 0 0-.146 3.223 2.187 2.187 0 0 0 3.224-.145l12.904-14.538.003-.004.004-.004 2.986-3.364a.683.683 0 0 1 .804-.163 3.625 3.625 0 0 0 4.12-.707l8.786-8.787a.683.683 0 0 1 .966.966l-8.787 8.787zm3.01 14.737l-11.32-10.048-1.704 1.919 9.947 11.206a2.188 2.188 0 0 0 3.223.146 2.188 2.188 0 0 0-.146-3.223zM833.734.2a.683.683 0 0 1 0 .965l-8.787 8.787a3.625 3.625 0 0 0-.707 4.119.683.683 0 0 1-.162.805l-6.08 5.395a.68.68 0 0 1-.963-.057l-2.574-2.9a6.866 6.866 0 0 1-7.987-1.278c-2.117-2.118-3.608-4.57-4.196-6.906-.614-2.439-.204-4.53 1.154-5.888 1.359-1.359 3.45-1.768 5.888-1.155 2.336.589 4.79 2.079 6.907 4.196a6.866 6.866 0 0 1 1.279 7.987l2.598 2.307 2.704-2.4a4.994 4.994 0 0 1 1.174-5.19L832.769.2a.683.683 0 0 1 .965 0zm-16.131 18.597l1.473-1.307-2.888-2.563a.683.683 0 0 1-.128-.869 5.508 5.508 0 0 0-.799-6.81c-1.945-1.945-4.174-3.308-6.274-3.837-1.954-.492-3.584-.21-4.589.796-1.005 1.005-1.288 2.635-.796 4.59.53 2.1 1.892 4.328 3.838 6.273a5.508 5.508 0 0 0 6.809.8.683.683 0 0 1 .869.127l2.485 2.8z"/>
        <filter id="a" width="340.4%" height="353.9%" x="-120.2%" y="-99.2%" filterUnits="objectBoundingBox">
            <feMorphology in="SourceAlpha" operator="dilate" radius=".2" result="shadowSpreadOuter1"/>
            <feOffset dy="10" in="shadowSpreadOuter1" result="shadowOffsetOuter1"/>
            <feGaussianBlur in="shadowOffsetOuter1" result="shadowBlurOuter1" stdDeviation="13.5"/>
            <feComposite in="shadowBlurOuter1" in2="SourceAlpha" operator="out" result="shadowBlurOuter1"/>
            <feColorMatrix in="shadowBlurOuter1" values="0 0 0 0 0 0 0 0 0 0 0 0 0 0 0 0 0 0 0.1 0"/>
        </filter>
    </defs>
    <g fill="none" fill-rule="evenodd" opacity=".5" transform="translate(-777 14)">
        <use fill="#000" filter="url(#a)" xlink:href="#b"/>
        <use fill="#1F1E21" stroke="#1F1E21" stroke-width=".4" xlink:href="#b"/>
    </g>
</svg>
