<svg xmlns="http://www.w3.org/2000/svg" width="34" height="36" viewBox="0 0 34 36">
    <path fill="#1F1E21" fill-rule="nonzero" d="M29.679 17.816c2.473.283 3.458 2.204 3.444 3.664v9.489c0 .566-.46 1.027-1.028 1.027h-.666v2.976c0 .567-.46 1.028-1.027 1.028h-5.004c-.566 0-1.027-.46-1.027-1.028v-2.976H8.752v2.976c0 .567-.46 1.028-1.028 1.028H2.721c-.567 0-1.027-.46-1.027-1.028v-2.976h-.666C.46 31.996 0 31.536 0 30.97v-9.49c0-1.792 1.346-3.493 3.458-3.663l.666-8.766C4.28 7.03 5.94 5.443 7.902 5.443h17.333c1.963 0 3.622 1.58 3.778 3.607l.666 8.766zm-23.5-8.603l-.623 8.284a77.065 77.065 0 0 1 22.04 0l-.631-8.284c-.078-.957-.837-1.708-1.73-1.708H7.91c-.9 0-1.659.75-1.73 1.708zm.525 24.732v-1.949H3.756v1.949h2.948zm22.677 0v-1.949h-2.948v1.949h2.948zm1.7-4.004V21.48c0-.773-.552-1.432-1.317-1.567a75.335 75.335 0 0 0-26.384 0 1.594 1.594 0 0 0-1.318 1.567v8.46H31.082zm-23.37-8.575a3.534 3.534 0 0 1 3.528 3.53 3.534 3.534 0 0 1-3.529 3.528 3.53 3.53 0 0 1 0-7.058zm0 5.01a1.473 1.473 0 1 0-1.474-1.474c0 .815.658 1.474 1.473 1.474zm17.716-5.01a3.534 3.534 0 0 1 3.529 3.53 3.534 3.534 0 0 1-3.53 3.528 3.53 3.53 0 0 1 0-7.058zm0 5.01a1.473 1.473 0 1 0-1.474-1.474c0 .815.659 1.474 1.474 1.474zM9.928 0h3.317v.808h-1.19v3.387h-.936V.808h-1.19V0zm5.868 0l1.814 4.195h-.999l-.39-.907h-1.757l-.39.907h-1L14.89 0h.907zm-.97 2.466h1.048l-.524-1.219-.525 1.22zm5.449-.44l1.417 2.17h-1.14l-.894-1.383-.886 1.382H17.64l1.41-2.147L17.738 0h1.12l.8 1.24L20.46 0h1.127l-1.311 2.027zM22.273 0h.936v4.195h-.936V0zm-3.16 25.923a1.028 1.028 0 0 1 0 2.055h-5.081a1.028 1.028 0 0 1 0-2.055h5.08zm0-4.103a1.028 1.028 0 0 1 0 2.055h-5.081a1.028 1.028 0 0 1 0-2.055h5.08z" opacity=".5"/>
</svg>
