<svg xmlns="http://www.w3.org/2000/svg" width="15" height="22" viewBox="0 0 15 22">
    <path fill="#393A3C" fill-rule="nonzero" stroke="#393A3C" stroke-width=".5" d="M11.506 7.88c0 2.053-2.11 3.588-4.006 3.588-1.897 0-4.01-1.535-4.01-3.589V5.435c0-.832.666-1.524 1.499-1.524h5.013c.833 0 1.504.692 1.504 1.524V7.88zm-1.66 2.103c.691-.587 1.07-1.334 1.07-2.104V5.435a.928.928 0 0 0-.914-.933H4.99c-.507 0-.909.427-.909.933V7.88c0 .77.376 1.516 1.07 2.104.67.568 1.523.894 2.346.894.824 0 1.68-.326 2.35-.894zM4.22 11.012a.91.91 0 0 1 .347 1.748.908.908 0 1 1-.347-1.748zm0 1.226a.318.318 0 1 0-.001-.636.318.318 0 0 0 .001.636zm6.554-1.226a.91.91 0 0 1 0 1.817.908.908 0 0 1 0-1.817zm0 1.226a.318.318 0 1 0 0-.636.318.318 0 0 0 0 .636zm-8.99-2.926A.79.79 0 0 1 1 8.507V6.232a.789.789 0 0 1 .785-.802h.27v-.762c0-1.058.864-1.938 1.923-1.938h2.296v-.291c-.38-.088-.675-.366-.675-.705v-.439A.284.284 0 0 1 5.881 1h3.233a.284.284 0 0 1 .283.295v.439c0 .34-.296.618-.675.705v.29h2.296c1.058 0 1.923.88 1.923 1.939v.762h.27a.788.788 0 0 1 .785.802v2.275a.791.791 0 0 1-.785.805h-.27v3.79c.422.006.802.363.802.802v.57c0 .442-.374.787-.816.787h.014v1.382c0 1.084-1.182 1.532-1.232 1.55-.011.004-.03.008-.041.01l-.836.204 1.466 2.13a.296.296 0 0 1-.487.335l-.348-.505h-7.93l-.348.505a.296.296 0 0 1-.488-.335L4.162 18.4l-.84-.197a.358.358 0 0 1-.04-.01c-.049-.02-1.227-.467-1.227-1.551V15.26h.014c-.442 0-.816-.345-.816-.787v-.57c0-.439.38-.796.802-.801V9.312h-.27zm9.271 10.464l-.838-1.219-2.584.63a.296.296 0 0 1-.138 0l-2.715-.64-.843 1.229h7.118zm1.294-3.133V15.26H2.646v1.382c0 .272.14.518.4.731.134.107.281.195.439.26l4.08.961 3.947-.96a1.83 1.83 0 0 0 .436-.26c.261-.215.402-.46.402-.732zm.802-2.739c0-.116-.108-.204-.225-.204H2.07c-.117 0-.225.088-.225.204v.57c0 .117.108.197.225.197h10.858c.117 0 .225-.08.225-.196v-.57zm.06-7.883h-.271v2.7h.27c.117 0 .194-.097.194-.214V6.232c0-.116-.077-.211-.194-.211zM6.19 1.734c0 .032.133.152.38.152h1.856c.246 0 .383-.115.393-.15V1.59H6.19v.143zm.675.743v.253h1.266v-.253H6.865zm-4.22 2.19v8.442h9.705V4.668c0-.733-.599-1.347-1.332-1.347h-7.04c-.733 0-1.332.614-1.332 1.347zM1.592 6.233v2.275c0 .117.077.214.194.214h.27v-2.7h-.27c-.117 0-.194.095-.194.211z" opacity=".3"/>
</svg>
