<svg xmlns="http://www.w3.org/2000/svg" xmlns:xlink="http://www.w3.org/1999/xlink" width="1000" height="1000" viewBox="0 0 1000 1000">
  <defs>
    <clipPath id="clip-custom_1">
      <rect width="1000" height="1000"/>
    </clipPath>
  </defs>
  <g id="custom_1" data-name="custom – 1" clip-path="url(#clip-custom_1)">
    <rect width="1000" height="1000" fill="rgba(255,255,255,0)"/>
    <g id="videos" transform="translate(-8)" opacity="0.3">
      <path id="Path_1" data-name="Path 1" d="M673.3,601.15a29.3,29.3,0,0,1,0,48.75L438,806.8a29.25,29.25,0,0,1-45.5-24.4V468.6A29.3,29.3,0,0,1,438,444.25l235.35,156.9ZM451,727.65,604.25,625.5,451,523.35V727.7Zm527.7-476.6a29.277,29.277,0,0,1,29.3,29.3V970.7a29.3,29.3,0,0,1-29.3,29.3H37.3A29.3,29.3,0,0,1,8,970.7V280.35a29.277,29.277,0,0,1,29.3-29.3H978.7ZM949.4,941.4V309.65H66.6V941.4H949.4ZM884.55,125.5a29.3,29.3,0,1,1,0,58.6H131.5a29.3,29.3,0,1,1,0-58.6h753ZM790.4,0a29.3,29.3,0,0,1,0,58.6H225.6a29.3,29.3,0,1,1,0-58.6H790.4Z" transform="translate(0)"/>
      <path id="Path_2" data-name="Path 2" d="M673.3,601.15a29.3,29.3,0,0,1,0,48.75L438,806.8a29.25,29.25,0,0,1-45.5-24.4V468.6A29.3,29.3,0,0,1,438,444.25l235.35,156.9ZM451,727.65,604.25,625.5,451,523.35V727.7Zm527.7-476.6a29.277,29.277,0,0,1,29.3,29.3V970.7a29.3,29.3,0,0,1-29.3,29.3H37.3A29.3,29.3,0,0,1,8,970.7V280.35a29.277,29.277,0,0,1,29.3-29.3H978.7ZM949.4,941.4V309.65H66.6V941.4H949.4ZM884.55,125.5a29.3,29.3,0,1,1,0,58.6H131.5a29.3,29.3,0,1,1,0-58.6h753ZM790.4,0a29.3,29.3,0,0,1,0,58.6H225.6a29.3,29.3,0,1,1,0-58.6H790.4Z" transform="translate(0)" stroke="#000" stroke-width="0.4"/>
    </g>
  </g>
</svg>
